<?xml version="1.0" ?><!DOCTYPE svg  PUBLIC '-//W3C//DTD SVG 1.1//EN'  'http://www.w3.org/Graphics/SVG/1.1/DTD/svg11.dtd'><svg height="512px" style="enable-background:new 0 0 512 512;" version="1.1" viewBox="0 0 512 512" width="512px" xml:space="preserve" xmlns="http://www.w3.org/2000/svg" xmlns:xlink="http://www.w3.org/1999/xlink"><g id="comp_x5F_17-amilia"><g><path d="    M271.026,46.001c-58.031,0-123.281,15.845-172.687,51.938c-4.781,2.906-8.531,8.624-6.75,18.186    c1.031,4.782,4.781,25.688,9.562,37.125c3.845,9.563,13.313,9.563,19.032,5.72c30.469-20.906,90.468-44.719,142.781-44.719    c54.28,0,55.218,26.625,55.218,68.531v36.094c-81.937,10.594-198.935,32.437-228.467,44.813    c-33.281,15.28-28.5,87.655-28.5,104.812c0,17.154,14.251,97.499,117.094,97.499c44.813,0,106.592-19.405,143.717-39.469v23.813    c0,2.812,1.968,7.687,5.718,8.531c2.907,0.938,47.531,1.874,56.157,1.874c8.625,0,58.593,0.28,62.342-0.656    c3.845-0.938,4.781-5.719,4.781-8.532v-278.06C450.932,98.221,396.744,46.001,271.026,46.001z M318.087,372.249    c-20.062,12.377-45.654,22.877-74.154,22.877c-49.5,0-55.218-31.408-55.312-41.908c0-11.438-2.813-40.03,17.156-49.594    c22.781-12.376,70.405-27.561,112.31-31.405V372.249z" style="fill:none;stroke:#000000;stroke-width:20;stroke-linecap:round;stroke-linejoin:round;stroke-miterlimit:10;"/></g></g><g id="Layer_1"/></svg>